# xmcd
#
# Track frame offsets: 
#        150
#        8355
#        20970
#        32370
#        42132
#        51381
#        68208
#        75774
#        84393
#        95397
#        104079
#        110916
#        117330
#        128829
#        136953
#        145905
#        154605
#        160038
#        169089
#        179040
#        188397
#        194856
#        202746
#        211788
#        225780
#
# Disc length: 3154 seconds
#
# Revision: 0
# Processed by: cddbd v1.5.2PL0 Copyright (c) Steve Scherf et al.
# Submitted via: ExactAudioCopy v0.99pb3
#
DISCID=450c5019
DTITLE=Various Artist - More Golden Fiddle - Volume Two
DYEAR=1900
DGENRE=Country
TTITLE0=01 - Carl Elliott - Cape Blomidon
TTITLE1=02 - Bill Sawyer - Lord McDonald Reel
TTITLE2=03 - Dennis Harrington - Durang Hornpipe
TTITLE3=04 - Webb Acheson - Grandfather's Reel
TTITLE4=05 - Suzanne Tellier - Fraser Valley
TTITLE5=06 - Terri Lynn Mahusky - Skye Boat Song
TTITLE6=07 - Terri Lynn Mahusky - Red Wing
TTITLE7=08 - Gerry Malley - Goose Feathers
TTITLE8=09 - Smiley Bates - Arkansas Traveller
TTITLE9=10 - Erwin Deighan - Haste to the Wedding
TTITLE10=11 - John Wilmot - Cooley's Reel
TTITLE11=12 - Sinclair Cheechoo - Moccasin Shuffle
TTITLE12=13 - Brent Williams - Three Men On A Horse
TTITLE13=14 - Graham Townsend - Fort Francis Reel
TTITLE14=15 - Carl Elliott - Blue Ribbon Hornpipe
TTITLE15=16 - Bob Ranger - Nobody's Business
TTITLE16=17 - Bunty Petrie - Golden Slippers
TTITLE17=18 - Suzanne Tellier - Hannigan's Hornpipe
TTITLE18=19 - Bill Sawyer - Soldier's Joy
TTITLE19=20 - Carl Elliott - Torn Marsh Hornpipes
TTITLE20=21 - Sinclair Cheechoo - Beaver Creek Reel
TTITLE21=22 - Terri Lynn Mahusky - Stratford Waltz
TTITLE22=23 - Carl Elliott - P.E.I. Centennial Breakdown
TTITLE23=24 - Bob Ranger - Clarinet Polka
TTITLE24=25 - Chuck Joyce - Judy's Reel
EXTD=
EXTT0=
EXTT1=
EXTT2=
EXTT3=
EXTT4=
EXTT5=
EXTT6=
EXTT7=
EXTT8=
EXTT9=
EXTT10=
EXTT11=
EXTT12=
EXTT13=
EXTT14=
EXTT15=
EXTT16=
EXTT17=
EXTT18=
EXTT19=
EXTT20=
EXTT21=
EXTT22=
EXTT23=
EXTT24=
PLAYORDER=
